<svg width="154" height="38" viewBox="0 0 154 38" fill="none" xmlns="http://www.w3.org/2000/svg">
<path d="M23.1719 29.1112C23.9086 26.8476 24.7681 24.4799 25.5849 22.243C26.4711 23.551 30.0721 33.5663 30.4911 34.8822C31.0037 36.4865 31.9272 36.5479 33.011 36.4731C34.4417 36.3771 34.8608 34.8822 34.2202 33.4568C33.2699 31.3507 29.3327 20.4626 28.6333 18.2657C28.0674 16.4959 26.9169 16.6321 25.4995 16.7122C24.2182 16.7842 23.4868 17.0352 23.0064 18.3004C20.975 23.6604 18.8476 28.983 16.7628 34.3217C16.1142 35.982 16.1275 36.3504 17.8839 36.4731C17.8839 36.4731 20.596 36.8255 20.8923 36.1608C21.677 34.3884 22.59 30.9023 23.1745 29.1085L23.1719 29.1112Z" fill="#233E8B" stroke="#233E8B" stroke-miterlimit="10"/>
<path d="M23.1719 29.1112C23.9086 26.8476 24.7681 24.4799 25.5849 22.243C26.4711 23.551 30.0721 33.5663 30.4911 34.8822C31.0037 36.4865 31.9272 36.5479 33.011 36.4731C34.4417 36.3771 34.8608 34.8822 34.2202 33.4568C33.2699 31.3507 29.3327 20.4626 28.6333 18.2657C28.0674 16.4959 26.9169 16.6321 25.4995 16.7122C24.2182 16.7842 23.4868 17.0352 23.0064 18.3004C20.975 23.6604 18.8476 28.983 16.7628 34.3217C16.1142 35.982 16.1275 36.3504 17.8839 36.4731C17.8839 36.4731 20.596 36.8255 20.8923 36.1608C21.677 34.3884 22.59 30.9023 23.1745 29.1085L23.1719 29.1112Z" stroke="#233E8B" stroke-miterlimit="10"/>
<path d="M29.4156 31.8074H22.3579L23.5458 27.9902H28.0009L29.4156 31.8074Z" fill="#233E8B" stroke="#233E8B" stroke-miterlimit="10"/>
<path d="M1.28072 26.8343C1.28072 24.197 1.26737 21.5597 1.28339 18.9251C1.29674 17.1233 1.46223 16.9979 3.49626 17.0005C5.45554 17.0032 5.55164 17.0779 5.55697 18.8717C5.56765 23.0305 5.60502 27.1893 5.53562 31.3455C5.51426 32.6801 5.93602 33.1392 7.26267 33.0832C9.37143 32.9898 11.4855 33.1152 13.5943 33.0405C14.8809 32.9951 15.2493 33.5477 15.2306 34.7569C15.2146 35.8833 15.0331 36.5907 13.6744 36.572C10.0548 36.5186 6.43518 36.5239 2.81558 36.572C1.5957 36.588 1.25136 36.0194 1.26737 34.901C1.30474 32.213 1.27805 29.525 1.27805 26.8396L1.28072 26.8343Z" fill="#233E8B" stroke="#233E8B" stroke-miterlimit="10"/>
<path d="M35.2186 28.9299C35.2266 29.4317 35.2373 29.9362 35.2987 30.4354C35.7285 33.9242 37.8025 36.1824 40.9603 36.4734C42.3057 36.5962 43.6804 36.6042 45.0257 36.4787C48.309 36.1717 50.4231 33.9962 50.6606 30.8278C50.9703 26.7117 50.9329 22.5902 50.9409 18.4688C50.9409 17.1101 50.3617 16.5976 49.0297 16.5923C46.7554 16.5816 46.6513 16.6323 46.646 18.9039C46.646 19.4057 46.6567 19.9102 46.646 20.4121C46.5552 23.7274 46.8996 27.0533 46.4458 30.3526C46.1815 32.2745 44.959 33.1074 42.8983 32.9926C40.8509 32.8778 39.6951 31.9035 39.5563 30.0216C39.4522 28.6202 39.5723 27.2028 39.4628 25.8014C39.4628 25.8014 39.7511 19.4191 39.4628 17.4998C39.4068 17.1154 39.1932 16.5015 38.2777 16.5015C37.6344 16.5015 36.2436 16.3894 35.6324 16.5896C35.3574 16.6803 35.1812 16.9179 35.1359 17.6333C35.0905 18.3487 35.2159 28.9299 35.2159 28.9299H35.2186Z" fill="#233E8B" stroke="#233E8B" stroke-miterlimit="10"/>
<path d="M64.9841 28.8205C64.9841 27.8035 64.9841 26.8719 64.9841 25.9403C64.9841 23.6286 64.9788 21.317 64.9841 19.0054C64.9895 17.0968 66.6284 16.1305 68.3128 17.0167C68.86 17.305 68.9 17.8175 68.9027 18.3087C68.916 23.9356 68.9107 29.5625 68.9134 35.1921C68.9134 36.1478 68.4009 36.428 67.4933 36.5295C65.5874 36.7403 64.3488 36.1718 63.3639 34.3753C61.5834 31.1241 59.5013 28.0384 57.4994 24.8058C57.0776 25.2783 57.2244 25.7427 57.2217 26.1565C57.2057 29.1221 57.1764 32.085 57.2244 35.0507C57.2484 36.4734 56.3943 36.5535 55.3505 36.5135C54.3682 36.4734 53.2471 36.7457 53.2525 35.1334C53.2765 29.5065 53.2685 23.8769 53.2605 18.25C53.2605 17.2997 53.7143 16.942 54.6378 16.8646C56.3195 16.7231 57.5421 17.0541 58.4576 18.7545C60.0966 21.8028 62.0265 24.6937 63.8523 27.6406C64.1006 28.0437 64.2367 28.5669 64.9868 28.8231L64.9841 28.8205Z" fill="#233E8B" stroke="#233E8B" stroke-miterlimit="10"/>
<path d="M79.5666 36.569C74.0758 36.5556 70.4642 32.4048 70.6644 26.2974C70.7045 25.0402 70.8886 23.7936 71.2437 22.5844C72.88 16.9868 79.8549 14.475 84.7184 17.7262C85.8849 18.5057 86.659 19.5894 87.2302 20.8547C87.652 21.7916 87.5025 22.3869 86.3974 22.5817C85.8555 22.6778 85.3243 22.8407 84.7878 22.9768C84.0831 23.1556 83.5572 23.0836 83.2156 22.2854C82.4868 20.5904 81.0534 19.9391 79.3077 20.0806C77.4552 20.2301 76.0751 21.127 75.5092 23.0062C74.8099 25.3311 74.8366 27.6748 75.5012 29.9864C76.0137 31.7669 77.4045 32.7999 79.1235 32.896C81.1282 33.0081 82.276 32.2954 83.1942 30.4456C83.4585 29.9117 83.4371 28.9641 84.35 29.1109C85.4258 29.2844 86.5736 29.4312 87.4091 30.224C87.7721 30.5683 87.4358 31.0915 87.2889 31.5053C86.1038 34.8499 83.4531 36.585 79.5666 36.577V36.569Z" fill="#233E8B" stroke="#233E8B" stroke-miterlimit="10"/>
<path d="M89.0775 26.7997C89.0775 24.037 89.1256 21.2716 89.0615 18.5088C89.0215 16.7684 90.1773 16.9393 91.2984 16.8992C92.4489 16.8592 93.263 17.0487 93.1776 18.5168C93.0869 20.0704 93.191 21.6319 93.1509 23.1881C93.1242 24.1918 93.4739 24.6803 94.539 24.6509C96.0952 24.6082 97.6541 24.6109 99.2103 24.6509C100.174 24.6776 100.574 24.3013 100.548 23.3243C100.505 21.7173 100.598 20.1051 100.526 18.5008C100.454 16.8832 101.495 16.9019 102.608 16.9046C103.751 16.9046 104.848 16.7951 104.835 18.5195C104.786 23.9969 104.778 29.4744 104.84 34.9492C104.861 36.8417 103.615 36.5 102.488 36.5561C101.282 36.6148 100.43 36.436 100.518 34.8798C100.62 33.078 100.51 31.2628 100.55 29.4557C100.572 28.4867 100.185 28.089 99.2183 28.113C97.6621 28.1504 96.1032 28.1504 94.547 28.113C93.4953 28.089 93.1296 28.5722 93.1536 29.5812C93.1936 31.3376 93.0682 33.1047 93.1883 34.8557C93.3057 36.5614 92.3047 36.5428 91.0982 36.5721C89.8036 36.6042 88.9921 36.3933 89.0508 34.7917C89.1496 32.133 89.0775 29.4664 89.0802 26.8024L89.0775 26.7997Z" fill="#233E8B" stroke="#233E8B" stroke-miterlimit="10"/>
<path d="M120.677 28.3126C121.68 28.3126 122.681 28.3233 123.685 28.3073C124.051 28.302 124.331 28.4194 124.601 28.6356C127.107 30.659 129.619 32.6716 132.126 34.6923C132.806 35.2395 133.474 35.8001 134.146 36.358C134.229 36.4274 134.368 36.4995 134.314 36.6222C134.266 36.7344 134.117 36.7317 134.002 36.7317C132.174 36.7317 130.345 36.7317 128.517 36.7317C128.279 36.7317 128.108 36.5982 127.94 36.4594C125.66 34.5508 123.378 32.6476 121.101 30.7364C120.853 30.5282 120.666 30.4801 120.397 30.7257C119.257 31.7614 118.104 32.7811 116.948 33.7981C115.931 34.6923 114.9 35.5732 113.878 36.4648C113.718 36.6062 113.542 36.6703 113.323 36.6703C111.436 36.6703 109.548 36.6703 107.659 36.6676C107.533 36.6676 107.362 36.7103 107.312 36.5608C107.274 36.4461 107.41 36.3713 107.496 36.3019C109.893 34.332 112.292 32.362 114.69 30.392C115.44 29.7754 116.195 29.1642 116.94 28.5395C117.143 28.3687 117.359 28.3126 117.623 28.3126C118.64 28.3207 119.657 28.3153 120.677 28.3153V28.3126Z" fill="#E86A00" stroke="#E86A00" stroke-miterlimit="10"/>
<path d="M120.536 23.6946C120.21 23.9321 120.018 23.9428 119.722 23.6305C117.722 21.5084 115.702 19.4103 113.689 17.3042C113.523 17.1307 113.371 16.9412 113.099 16.9412C111.166 16.9412 109.234 16.9412 107.304 16.9412C107.218 16.9412 107.112 16.9252 107.072 17.0293C107.029 17.1387 107.125 17.1948 107.186 17.2535C107.638 17.6966 108.091 18.1397 108.548 18.5775C111.393 21.3135 114.241 24.0469 117.084 26.7883C117.389 27.0819 117.712 27.0499 118.227 27.0232C120.098 26.9325 121.473 27.0739 123.221 27.0259C123.747 27.0125 124.043 27.0446 124.342 26.7536L135.66 16.8344L153 1L120.536 23.6946Z" fill="#E86A00" stroke="#E86A00" stroke-miterlimit="10"/>
</svg>
